PathFileType	4	(X/Y/Z)	Patient4_TMGait_0pt2_01_right_25.trc.trc
DataRate	CameraRate	NumFrames	NumMarkers	Units	OrigDataRate	OrigDataStartFrame	OrigNumFrames
45.454545454545	45.454545454545	4	33	mm	45.454545454545	106	       141
Frame#	Time	Sacral			L.Shoulder			Chest			R.Shoulder			Neck			R.ASIS			L.ASIS			R.Thigh.Superior			R.Thigh.Lateral			R.Thigh.Inferior			R.Patella			L.Thigh.Superior			L.Thigh.Lateral			L.Thigh.Inferior			L.Patella			L.Shank.Superior			L.Shank.Lateral			L.Shank.Inferior			R.Shank.Superior			R.Shank.Lateral			R.Shank.Inferior			R.Heel			R.Midfoot.Superior			R.Midfoot.Lateral			R.Toe			L.Heel			L.Midfoot.Lateral			L.Midfoot.Superior			L.Toe			L.Elbow			L.Wrist			R.Elbow			R.Wrist			
		X1	Y1	Z1	X2	Y2	Z2	X3	Y3	Z3	X4	Y4	Z4	X5	Y5	Z5	X6	Y6	Z6	X7	Y7	Z7	X8	Y8	Z8	X9	Y9	Z9	X10	Y10	Z10	X11	Y11	Z11	X12	Y12	Z12	X13	Y13	Z13	X14	Y14	Z14	X15	Y15	Z15	X16	Y16	Z16	X17	Y17	Z17	X18	Y18	Z18	X19	Y19	Z19	X20	Y20	Z20	X21	Y21	Z21	X22	Y22	Z22	X23	Y23	Z23	X24	Y24	Z24	X25	Y25	Z25	X26	Y26	Z26	X27	Y27	Z27	X28	Y28	Z28	X29	Y29	Z29	X30	Y30	Z30	X31	Y31	Z31	X32	Y32	Z32	X33	Y33	Z33	

106	58.350000000000	832.266618437347	989.963476653940	402.307341491643	1023.575419392574	1422.886735059866	245.865574933524	1117.594818380761	1348.200964249932	409.094979419210	1025.690750904316	1409.985854076197	583.045407335171	989.537110246025	1479.020483691231	406.352660815750	1057.485121050228	922.416844852339	528.022145126374	1055.517269293651	950.073858397276	256.009138465783	1125.630075288436	736.884723225142	499.683637944343	1069.400209704756	622.824391550587	573.481553744602	1153.623397075597	571.041383804552	495.580659822840	1158.251611532020	459.250059034582	521.027673418124	1116.572072836287	742.682262845452	303.198596381542	1046.494199045422	611.810018111434	246.302896044536	1129.302408823201	546.670931175715	325.084179576124	1133.540156833175	471.900076091250	337.217154005881	1092.066482845174	397.143679692998	330.200209122239	991.137049510744	296.242000712121	273.605142070943	1011.437509507348	182.429510294037	351.495320852963	1076.114559301529	393.015047313314	535.598695125180	955.967422023145	368.097775948698	607.164298455554	926.220906691789	259.185216003077	563.443151848153	716.598828915544	222.270505858220	553.930290685932	879.424344543271	141.240763827366	586.744886188599	771.774810001742	154.785451632442	623.681411570828	931.280540148634	30.554993958105	607.175618200375	858.196679540244	39.952701535006	382.793410306395	937.035556246029	36.470067089784	307.340004222796	1020.025460532546	95.844495966816	340.437626677623	1148.971331304334	40.050948868086	318.187859874675	1091.712216645845	1087.804555293274	98.906741408896	1262.205317139908	889.743573173333	117.427817778831	975.210682903021	1053.257494281491	678.368775652032	1036.431719388255	800.092837557739	682.040295265941	
107	58.372000000000	830.266990535514	988.881886297209	399.408175031105	1024.314581552652	1422.208581846554	245.384906159804	1115.779326370602	1347.456514139273	410.011152630951	1021.188089790813	1409.310714658887	582.597534082052	988.313436571516	1478.356442859931	405.651946051225	1054.626340924340	922.359775397665	527.593556037143	1055.507339188195	949.552120565003	255.363721747747	1128.246253559796	740.982623120555	497.462169810944	1076.704083962380	625.106674552533	571.582077399590	1162.024582068387	575.896169671329	492.861543673404	1169.705927793003	463.304846119920	518.468866239802	1115.864598059811	741.588666664976	302.705253314024	1045.577883196813	610.898621116383	245.905599418149	1127.494035137891	545.695414159721	325.476519790759	1131.479874317189	471.018537144868	337.881128241051	1089.480564177765	396.207955918430	330.553111597090	988.347232958666	295.745872266100	273.503513352007	1007.592094009806	181.898176608364	351.600477879447	1087.326475799582	396.127891038733	533.200467232361	966.492835305493	371.940871752847	604.284592939212	936.537735262968	262.854708369603	560.946098275998	726.785108441655	227.467326541120	550.337432910290	889.259517137800	145.488509651047	584.954480513143	781.181788186146	160.339818607197	621.207066805647	939.906583130525	31.444621035926	607.198370763074	853.728261018911	39.854056062837	382.676485921739	932.609511636691	36.387753781254	307.197894618346	1015.566328851189	95.747459920181	340.430032525812	1144.552013453891	40.047977484206	318.172200156735	1101.061567620082	1090.625986313835	96.224622498839	1285.226812165018	904.991378207825	115.248347325731	953.206773736617	1056.255147661968	676.398408203232	994.678499415974	798.460500029686	681.297611021379	
108	58.394000000000	828.470983376723	988.727382888655	396.886834073871	1025.177967300069	1422.273761749769	245.131123191605	1113.989781164348	1347.622399582681	411.193685709077	1016.704424191839	1409.822854808010	582.248708507767	987.103636236749	1478.509866287205	405.083119222578	1051.712584824467	923.120126833480	527.730098651395	1055.675149511037	949.746330781221	255.327436644207	1129.870710427623	745.563840125238	496.151676416729	1082.327451773023	628.131838205780	570.496757143690	1168.635442583030	581.278080780333	491.217877260244	1179.249554101638	468.296022206472	516.929723594277	1114.608486744145	740.769748133951	302.655138826573	1043.683985515771	610.598722666265	245.687223877818	1124.454055066666	545.007973168203	325.893783305347	1127.981975447255	470.565717728713	338.502950575019	1085.740770808756	395.812874955408	330.826044833873	984.700733099320	295.496321156691	273.364392875529	1003.346977175571	181.660755812471	351.654199067813	1097.330662795494	399.803068706144	531.580345556900	976.146149437806	374.793662293729	601.831953775191	947.563149852464	265.345818347847	558.679403303287	738.444774769487	227.920038522509	546.405012690093	901.498845277252	148.466239718530	583.092026449597	793.059115574524	162.476458623589	618.557017513972	953.065252330035	32.914442054821	607.372275584022	849.236917354021	39.764283502669	382.568097869528	928.167294254080	36.317335892720	307.068736555964	1011.095659080431	95.685804847826	340.385375476030	1140.113985821416	40.059654237989	318.158204109602	1109.834402653755	1094.272055412700	94.032887858809	1306.781356375419	921.999839818548	113.404962667158	931.940573427957	1061.351129922848	674.439613281726	955.609081354504	800.822451233806	679.674730461325	
109	58.416000000000	826.892553611751	989.506130307514	394.720770978551	1026.200590244763	1423.077972342048	245.103178904921	1112.259137715875	1348.683973159827	412.625039477383	1012.307234575282	1411.503276090198	581.994530132924	985.928986588497	1479.463756350340	404.640851962991	1048.733173548938	924.677449355206	528.414089368099	1055.998965435739	950.630254321044	255.900440273828	1130.444497232237	750.423150355518	495.832308648922	1086.060179301072	631.700680847935	570.283955204687	1173.276092338003	586.908979589923	490.764016973384	1186.661162350102	474.005818040938	516.538290860938	1112.780228532626	740.237726387056	303.077283874778	1040.821475636689	610.918712200997	245.620572667152	1120.182592940473	544.617108795073	326.321664232252	1123.044989522294	470.540583888765	339.047581690200	1080.853516975314	395.957637819225	330.992417621804	980.202136916971	295.490187327028	273.168980257858	998.702237357816	181.715038102464	351.647225233638	1105.991804588286	403.843955098215	530.880514607904	984.950239872819	376.359696617624	600.044222632628	959.386693962423	266.421371919715	556.890297184204	751.847575336426	223.329615241120	542.550015445206	916.318385195622	149.863689825130	581.385714410002	807.674233026121	160.835879844031	616.027794990817	970.954039711016	34.866006204993	607.749701617679	844.724527428347	39.683340076140	382.467562901371	923.708323735358	36.256250553157	306.951883993414	1006.612657052022	95.659713842131	340.302724121858	1135.658015193061	40.086993337724	318.146786150400	1118.084453864984	1098.690018669542	92.347795679944	1326.732807002838	940.543214040778	111.942607169101	911.682329397851	1068.355310946660	672.463824159806	919.741140364086	806.549844280025	677.296094800364	
